<svg width="18" height="18" viewBox="0 0 18 18" fill="none" xmlns="http://www.w3.org/2000/svg">
  <path d="M16.51 9.255c0-.66-.054-1.29-.156-1.902H9v3.6h4.224c-.18.954-.726 1.764-1.548 2.304v1.908h2.508c1.464-1.35 2.31-3.33 2.31-5.67z" fill="#4285F4"/>
  <path d="M9 17c2.07 0 3.81-.69 5.094-1.86l-2.508-1.908c-.69.48-1.566.747-2.586.747-1.986 0-3.672-1.335-4.275-3.129H2.109v1.98C3.405 15.795 6.009 17 9 17z" fill="#34A853"/>
  <path d="M4.725 10.71c-.15-.45-.24-.93-.24-1.41s.09-.96.24-1.41V5.91H2.109C1.395 7.35 1 8.625 1 10.05s.405 2.73 1.119 4.17l2.616-1.98z" fill="#FBBC04"/>
  <path d="M9 4.98c1.11 0 2.115.39 2.895 1.155l2.187-2.187C12.795 2.685 11.07 2 9 2c-2.991 0-5.595 1.206-6.891 4.161l2.616 1.98C5.328 6.345 7.014 4.98 9 4.98z" fill="#EA4335"/>
</svg> 