<?xml version="1.0" standalone="no"?>
<!DOCTYPE svg PUBLIC "-//W3C//DTD SVG 20010904//EN" "http://www.w3.org/TR/2001/REC-SVG-20010904/DTD/svg10.dtd">
<svg xmlns="http://www.w3.org/2000/svg" version="1.0" width="274.000000pt" height="274.000000pt" viewBox="0 0 274.000000 274.000000" preserveAspectRatio="xMidYMid meet">
<metadata>
Created by potrace 1.16, written by Peter Selinger 2001-2019
<meta name="Producer" content="Online-Convert"/></metadata>
<g transform="translate(0.000000,274.000000) scale(0.100000,-0.100000)" fill="#000000" stroke="none">
<path d="M615 2040 c26 -5 22 -7 -25 -14 -30 -5 -72 -10 -93 -10 -20 -1 -43 -8 -50 -15 -10 -10 -6 -10 16 -2 62 24 47 9 -29 -27 -43 -22 -93 -51 -110 -65 -33 -28 -50 -35 -38 -15 5 7 3 8 -5 4 -7 -5 -10 -11 -7 -14 9 -9 -15 -32 -27 -25 -5 3 -7 1 -4 -4 8 -13 -17 -36 -28 -25 -5 4 -5 1 -1 -6 8 -14 -29 -67 -47 -67 -7 0 -12 -7 -13 -15 -2 -36 -5 -41 -16 -34 -6 4 -8 3 -5 -4 9 -14 -3 -43 -14 -36 -5 3 -6 -3 -2 -12 4 -12 3 -15 -5 -10 -8 5 -10 1 -5 -10 3 -10 2 -15 -3 -12 -5 4 -10 -6 -11 -20 0 -15 -6 -28 -12 -30 -6 -2 -9 -7 -6 -12 6 -10 -19 -113 -26 -106 -3 3 -3 -10 -1 -29 2 -19 0 -35 -4 -35 -16 0 3 -261 25 -348 64 -247 212 -420 425 -498 73 -26 208 -47 280 -42 l49 3 59 160 c32 88 60 168 63 177 5 15 -3 13 -52 -9 -44 -20 -76 -27 -133 -29 -70 -1 -71 -1 -20 6 l55 7 -56 1 c-31 1 -82 11 -113 21 -32 10 -54 15 -49 10 5 -5 29 -15 54 -23 24 -8 35 -14 23 -15 -25 -1 -117 44 -136 66 -11 14 -8 13 15 -1 37 -25 34 -15 -4 13 -18 13 -29 19 -25 12 9 -15 -7 -14 -22 1 -16 16 -15 31 1 22 6 -4 3 2 -7 14 -23 26 -34 30 -15 5 13 -17 12 -17 -4 -4 -25 20 -59 89 -51 103 4 6 3 8 -4 4 -13 -8 -26 29 -16 45 5 8 3 9 -6 4 -10 -6 -12 -1 -8 18 3 15 1 28 -4 29 -5 2 -11 44 -14 93 -16 250 97 440 295 499 141 42 286 -10 349 -124 l27 -50 68 0 c37 0 70 1 75 2 4 0 25 52 48 114 40 111 41 114 24 142 -50 82 -205 181 -323 207 -34 7 -51 14 -37 14 14 0 42 -4 64 -8 27 -7 35 -6 28 1 -6 6 -83 11 -198 12 -104 0 -175 -1 -159 -4z"/>
<path d="M1595 2020 c-3 -11 -10 -20 -15 -20 -5 0 -7 -7 -4 -15 4 -8 1 -15 -6 -15 -6 0 -9 -4 -6 -8 7 -12 -15 -82 -25 -77 -4 3 -5 -5 -1 -17 3 -14 1 -19 -6 -14 -7 4 -10 2 -7 -6 7 -18 -29 -110 -40 -101 -4 5 -5 2 -1 -4 9 -16 -24 -124 -36 -117 -4 3 -6 -1 -3 -8 7 -18 -29 -110 -40 -101 -4 5 -5 2 -1 -4 10 -17 -14 -94 -27 -86 -6 3 -7 1 -3 -6 10 -16 -3 -53 -16 -45 -7 4 -8 2 -4 -4 10 -16 -4 -63 -17 -55 -6 3 -7 1 -3 -5 10 -16 -4 -63 -17 -55 -6 3 -7 1 -3 -5 9 -14 -4 -63 -14 -57 -5 3 -6 -5 -2 -17 4 -16 2 -19 -8 -13 -8 5 -11 4 -7 -2 9 -14 -36 -146 -46 -136 -5 4 -5 0 -2 -8 8 -20 -11 -68 -33 -86 -9 -8 -11 -11 -3 -7 10 5 13 3 8 -8 -3 -9 -11 -34 -18 -57 -7 -22 -16 -38 -22 -34 -6 3 -7 1 -3 -6 9 -14 -24 -111 -37 -111 -4 0 -6 -4 -3 -9 4 -5 -7 -47 -24 -94 -16 -47 -30 -90 -30 -96 0 -8 48 -11 161 -9 l161 3 199 565 c110 311 207 589 216 618 l17 52 106 0 c132 0 208 -19 280 -69 71 -49 120 -115 151 -199 21 -59 24 -84 24 -206 0 -103 -3 -140 -13 -144 -6 -2 -10 -8 -6 -13 7 -13 -26 -100 -37 -94 -4 3 -11 0 -15 -6 -4 -8 -3 -9 4 -5 22 14 12 -12 -22 -56 -18 -24 -38 -42 -45 -41 -6 2 -10 -2 -8 -8 1 -5 -18 -22 -42 -37 -25 -14 -41 -21 -37 -14 5 8 2 10 -8 6 -9 -3 -14 -10 -11 -14 10 -16 -32 -22 -150 -23 l-120 0 95 -6 95 -6 -68 -6 c-37 -4 -114 -6 -171 -5 -57 0 -102 -2 -99 -7 7 -12 -20 -76 -30 -70 -6 3 -7 1 -3 -5 9 -15 -4 -63 -15 -56 -5 3 -6 -1 -4 -8 3 -8 -4 -40 -15 -72 -11 -33 -20 -63 -20 -68 0 -5 87 -8 193 -8 320 2 481 50 640 190 50 44 119 142 157 221 54 117 72 207 74 376 0 86 -3 149 -8 146 -5 -3 -7 8 -4 25 2 17 1 29 -3 27 -10 -7 -22 63 -13 77 4 6 3 8 -4 4 -13 -8 -26 29 -16 45 4 7 3 9 -3 6 -5 -3 -17 10 -26 29 -20 41 -21 48 -5 38 7 -4 8 -3 4 5 -4 6 -11 9 -16 6 -10 -6 -22 24 -14 36 3 5 0 8 -7 7 -6 -2 -14 3 -17 11 -3 9 0 11 8 6 9 -6 11 -4 6 4 -5 7 -11 10 -14 7 -7 -8 -52 34 -52 47 0 6 10 2 23 -9 12 -10 0 5 -28 34 -47 50 -63 63 -50 42 10 -17 -12 -11 -26 7 -10 11 -10 14 -1 9 18 -11 15 -1 -5 15 -14 12 -16 12 -9 0 6 -9 4 -12 -5 -9 -8 3 -14 10 -14 16 0 5 -4 14 -9 19 -5 5 -6 2 -1 -6 5 -9 3 -12 -6 -9 -8 3 -13 10 -12 16 3 13 -16 28 -47 36 -17 4 -14 1 9 -10 18 -8 31 -17 29 -20 -3 -2 -29 7 -59 20 -64 29 -159 55 -209 57 l-35 2 40 7 c22 3 -82 7 -232 8 -265 2 -272 2 -278 -18z"/>
</g>
</svg>
