<?xml version="1.0" encoding="utf-8"?>
<!-- Uploaded to: SVG Repo, www.svgrepo.com, Generator: SVG Repo Mixer Tools -->
<svg width="800px" height="800px" viewBox="0 0 1024 1024" class="icon"  version="1.1" xmlns="http://www.w3.org/2000/svg"><path d="M460.068571 619.227429H30.281143c-16.676571 0-30.208-15.36-30.208-34.523429 0-19.017143 13.531429-34.450286 30.208-34.450286h436.955428l-45.787428-40.96-12.946286-13.165714A35.986286 35.986286 0 0 1 408.137143 446.171429a34.084571 34.084571 0 0 1 48.566857-0.512l115.126857 109.275428a36.571429 36.571429 0 0 1 1.024 52.077714L458.459429 724.114286a34.816 34.816 0 0 1-49.152-1.170286 38.765714 38.765714 0 0 1-0.658286-52.955429l12.726857-13.897142 38.765714-36.864zM253.952 70.656c0-19.456 15.798857-35.254857 35.254857-35.254857H914.285714a73.142857 73.142857 0 0 1 73.142857 73.142857v622.08a32.182857 32.182857 0 0 1-32.182857 32.182857 32.548571 32.548571 0 0 1-32.548571-32.182857l-5.851429-624.64H289.206857a35.254857 35.254857 0 0 1-35.254857-35.328zM145.261714 282.185143c0-19.456 15.798857-35.254857 35.254857-35.254857l522.532572 0.073143a73.142857 73.142857 0 0 1 73.142857 73.142857v529.261714a73.142857 73.142857 0 0 1-73.142857 73.142857h-623.177143a34.084571 34.084571 0 1 1 0-68.242286h625.517714V317.44H180.516571a35.254857 35.254857 0 0 1-35.254857-35.254857z" fill="#000000" /></svg>