<?xml version="1.0" encoding="iso-8859-1"?>
<!-- Uploaded to: SVG Repo, www.svgrepo.com, Generator: SVG Repo Mixer Tools -->
<svg fill="#000000" version="1.1" id="Layer_1" xmlns="http://www.w3.org/2000/svg" xmlns:xlink="http://www.w3.org/1999/xlink" 
	 viewBox="0 0 511.999 511.999" xml:space="preserve">
<g>
	<g>
		<path d="M388.831,193.63l-4.555-6.254h-57.854c12.12-12.952,18.792-29.764,18.792-47.566c0-38.416-31.254-69.669-69.671-69.669
			s-69.671,31.254-69.671,69.669c0,17.802,6.67,34.616,18.792,47.566H164.08l-4.555,6.253
			c-17.225,23.645-26.566,51.517-27.098,80.757l-36.379,104.61h36.355v74.206h67.179v58.798h166.43V385.034
			c31.834-27.013,49.939-65.958,49.939-108.01C415.952,246.823,406.573,217.986,388.831,193.63z M275.541,100.557
			c21.645,0,39.253,17.609,39.253,39.252c0,10.223-3.895,19.877-10.978,27.227l-0.19,0.189c-5.402,5.383-9.732,11.62-12.878,18.429
			v-44.226h-30.417v44.227c-3.145-6.809-7.477-13.047-12.878-18.43l-0.175-0.174c-7.091-7.352-10.992-17.01-10.992-27.242
			C236.289,118.166,253.897,100.557,275.541,100.557z M341.587,365.657l-5.991,4.565v111.36H229.999v-58.798H162.82v-74.206h-23.99
			l23.99-68.987v-2.569c0-21.184,5.872-41.509,17.046-59.23h57.743h75.865h55.015c11.174,17.722,17.047,38.047,17.047,59.23
			C385.535,312.072,369.516,344.378,341.587,365.657z"/>
	</g>
</g>
<g>
	<g>
		<rect x="135.732" y="124.599" width="49.996" height="30.417"/>
	</g>
</g>
<g>
	<g>
		
			<rect x="179.149" y="33.629" transform="matrix(0.7071 -0.7071 0.7071 0.7071 15.4707 154.6031)" width="30.417" height="49.995"/>
	</g>
</g>
<g>
	<g>
		
			<rect x="331.726" y="43.413" transform="matrix(0.7071 -0.7071 0.7071 0.7071 63.0305 269.4112)" width="49.995" height="30.417"/>
	</g>
</g>
<g>
	<g>
		<rect x="365.361" y="124.599" width="49.996" height="30.417"/>
	</g>
</g>
<g>
	<g>
		<rect x="260.33" width="30.417" height="49.996"/>
	</g>
</g>
</svg>